<svg width="20" height="20" viewBox="0 0 20 20" fill="none" xmlns="http://www.w3.org/2000/svg">
<path d="M14.0833 0C15.5199 0 16.8977 0.570683 17.9135 1.5865C18.9293 2.60233 19.5 3.98008 19.5 5.41667V14.0833C19.5 15.5199 18.9293 16.8977 17.9135 17.9135C16.8977 18.9293 15.5199 19.5 14.0833 19.5H5.41667C3.98008 19.5 2.60233 18.9293 1.5865 17.9135C0.570683 16.8977 0 15.5199 0 14.0833V5.41667C0 3.98008 0.570683 2.60233 1.5865 1.5865C2.60233 0.570683 3.98008 0 5.41667 0H14.0833ZM9.75 5.41667C8.60073 5.41667 7.49853 5.87321 6.68587 6.68587C5.87321 7.49853 5.41667 8.60073 5.41667 9.75C5.41667 10.8993 5.87321 12.0015 6.68587 12.8141C7.49853 13.6268 8.60073 14.0833 9.75 14.0833C10.8993 14.0833 12.0015 13.6268 12.8141 12.8141C13.6268 12.0015 14.0833 10.8993 14.0833 9.75C14.0833 8.60073 13.6268 7.49853 12.8141 6.68587C12.0015 5.87321 10.8993 5.41667 9.75 5.41667ZM9.75 7.58333C10.3246 7.58333 10.8757 7.81161 11.2821 8.21794C11.6884 8.62426 11.9167 9.17536 11.9167 9.75C11.9167 10.3246 11.6884 10.8757 11.2821 11.2821C10.8757 11.6884 10.3246 11.9167 9.75 11.9167C9.17536 11.9167 8.62426 11.6884 8.21794 11.2821C7.81161 10.8757 7.58333 10.3246 7.58333 9.75C7.58333 9.17536 7.81161 8.62426 8.21794 8.21794C8.62426 7.81161 9.17536 7.58333 9.75 7.58333ZM14.625 3.79167C14.3377 3.79167 14.0621 3.9058 13.859 4.10897C13.6558 4.31213 13.5417 4.58768 13.5417 4.875C13.5417 5.16232 13.6558 5.43787 13.859 5.64103C14.0621 5.8442 14.3377 5.95833 14.625 5.95833C14.9123 5.95833 15.1879 5.8442 15.391 5.64103C15.5942 5.43787 15.7083 5.16232 15.7083 4.875C15.7083 4.58768 15.5942 4.31213 15.391 4.10897C15.1879 3.9058 14.9123 3.79167 14.625 3.79167Z" fill="white"/>
</svg>
