<svg width="34" height="34" viewBox="0 0 34 34" fill="none" xmlns="http://www.w3.org/2000/svg">
<path fill-rule="evenodd" clip-rule="evenodd" d="M17.0001 7.08339C21.6946 7.08339 25.5001 10.889 25.5001 15.5834C25.5001 18.7296 23.7908 21.4765 21.2501 22.9463V28.3334L19.8335 29.7501H18.4169C18.4169 30.5325 17.7825 31.1667 17.0001 31.1667C16.2177 31.1667 15.5835 30.5325 15.5835 29.7501H14.1669L12.7501 28.3334V22.9463C10.2094 21.4765 8.50014 18.7296 8.50014 15.5834C8.50014 10.889 12.3058 7.08339 17.0001 7.08339ZM18.4169 23.9659C17.9487 24.0442 17.4748 24.0835 17.0001 24.0834C16.5174 24.0834 16.0442 24.0431 15.5834 23.9659L15.5835 26.9167H18.4169L18.4169 23.9659ZM9.23672 21.8442L10.7393 23.3469L7.73414 26.352L6.2315 24.8495L9.23672 21.8442ZM24.7636 21.8442L27.7688 24.8495L26.2662 26.352L23.261 23.3469L24.7636 21.8442ZM31.1669 14.521V16.646H26.9169V14.521H31.1669ZM7.0835 14.521V16.646H2.8335V14.521H7.0835ZM26.2663 4.81476L27.7688 6.3174L24.7636 9.32254L23.261 7.81997L26.2663 4.81476ZM7.73414 4.81476L10.7393 7.81997L9.23672 9.32254L6.2315 6.3174L7.73414 4.81476ZM18.0626 1.41675V5.66675H15.9376V1.41675H18.0626Z" fill="white"/>
</svg>
