<svg width="34" height="34" viewBox="0 0 34 34" fill="none" xmlns="http://www.w3.org/2000/svg">
<path fill-rule="evenodd" clip-rule="evenodd" d="M17 7.08315C21.6945 7.08315 25.5 10.8888 25.5 15.5831C25.5 18.7293 23.7907 21.4763 21.25 22.946V28.3331L19.8334 29.7499H18.4167C18.4167 30.5323 17.7824 31.1665 17 31.1665C16.2176 31.1665 15.5834 30.5323 15.5834 29.7499H14.1667L12.75 28.3331V22.946C10.2093 21.4763 8.5 18.7293 8.5 15.5831C8.5 10.8888 12.3056 7.08315 17 7.08315ZM18.4168 23.9656C17.9486 24.044 17.4747 24.0833 17 24.0831C16.5173 24.0831 16.044 24.0429 15.5833 23.9656L15.5834 26.9165H18.4167L18.4168 23.9656ZM9.23658 21.844L10.7392 23.3466L7.73401 26.3518L6.23137 24.8492L9.23658 21.844ZM24.7635 21.844L27.7686 24.8492L26.2661 26.3518L23.2609 23.3466L24.7635 21.844ZM31.1667 14.5207V16.6457H26.9167V14.5207H31.1667ZM7.08336 14.5207V16.6457H2.83336V14.5207H7.08336ZM26.2661 4.81451L27.7686 6.31715L24.7635 9.3223L23.2609 7.81973L26.2661 4.81451ZM7.73401 4.81451L10.7392 7.81973L9.23658 9.3223L6.23137 6.31715L7.73401 4.81451ZM18.0625 1.4165V5.6665H15.9375V1.4165H18.0625Z" fill="#0B2941"/>
</svg>
