<svg width="38" height="30" viewBox="0 0 38 30" fill="none" xmlns="http://www.w3.org/2000/svg">
<path d="M16.1619 3.78516L13.1278 6.7793C12.2194 7.02539 11.3763 7.47656 10.6638 8.09766L9.08437 9.48633C8.47875 10.0195 7.68906 10.3125 6.87563 10.3125H5.7V17.8125C6.91125 17.8477 8.06312 18.334 8.92406 19.1836L11.0378 21.2695L11.4534 21.6797L13.0566 23.2617C13.4247 23.625 14.0303 23.625 14.3984 23.2617C14.4994 23.1621 14.5766 23.0449 14.6181 22.9219C14.7844 22.4707 15.1703 22.1309 15.6453 22.0254C16.1203 21.9199 16.6191 22.0605 16.9634 22.4062L17.6047 23.0273C18.2934 23.707 19.4097 23.707 20.0925 23.0273C20.4131 22.7109 20.5853 22.3066 20.6031 21.8906C20.6269 21.375 20.9356 20.918 21.4106 20.6953C21.8856 20.4727 22.4378 20.5195 22.8594 20.8184C23.4175 21.2109 24.1953 21.1582 24.6941 20.666C25.2522 20.1152 25.2522 19.2246 24.6941 18.6797L20.1934 14.2383L18.0678 16.1719C16.4469 17.6484 13.9591 17.6719 12.3084 16.2246C10.4263 14.5723 10.3847 11.6895 12.2134 9.98437L16.3756 6.10547C18.0025 4.59375 20.1519 3.75 22.3903 3.75C24.5338 3.75 26.6059 4.5293 28.2031 5.92969L29.9903 7.5H37.05C37.5725 7.5 38 7.92188 38 8.4375V20.625C38 21.6621 37.1509 22.5 36.1 22.5H34.2C33.4994 22.5 32.8819 22.125 32.5553 21.5625H27.5144C27.3125 21.9551 27.0453 22.3301 26.7128 22.6582C25.6975 23.6602 24.2903 24.0527 22.9722 23.8359C22.7584 24.2637 22.4675 24.6621 22.1053 25.0195C20.4844 26.6191 17.9491 26.7773 16.1441 25.4941C14.6537 26.7129 12.4331 26.6367 11.0378 25.2539L9.44063 23.6719L9.025 23.2617L6.91125 21.1758C6.58469 20.8535 6.15719 20.666 5.7 20.6309C5.7 21.6621 4.845 22.5 3.8 22.5H1.9C0.849062 22.5 0 21.6621 0 20.625V8.4375C0 7.92188 0.4275 7.5 0.95 7.5H6.87563C6.99438 7.5 7.10719 7.45898 7.19031 7.38281L8.76375 6C10.4203 4.55273 12.5519 3.75 14.7666 3.75H15.3781C15.6394 3.75 15.9066 3.76172 16.1619 3.78516ZM32.3 18.75V10.3125H29.45C29.0997 10.3125 28.7612 10.1836 28.5059 9.95508L26.315 8.0332C25.2344 7.08398 23.8391 6.5625 22.3903 6.5625C20.8822 6.5625 19.4334 7.13086 18.335 8.15039L14.1728 12.0293C13.5612 12.6035 13.5731 13.5703 14.2025 14.1211C14.7547 14.6074 15.5919 14.5957 16.1322 14.1035L20.4013 10.2129C20.9772 9.68555 21.8797 9.7207 22.4141 10.2949C22.9484 10.8691 22.9128 11.7539 22.3309 12.2812L22.2834 12.3281L26.7009 16.6875C27.2947 17.2734 27.6806 17.9941 27.8528 18.7441H32.2941L32.3 18.75ZM3.8 19.6875C3.8 19.4389 3.69991 19.2004 3.52175 19.0246C3.34359 18.8488 3.10196 18.75 2.85 18.75C2.59804 18.75 2.35641 18.8488 2.17825 19.0246C2.00009 19.2004 1.9 19.4389 1.9 19.6875C1.9 19.9361 2.00009 20.1746 2.17825 20.3504C2.35641 20.5262 2.59804 20.625 2.85 20.625C3.10196 20.625 3.34359 20.5262 3.52175 20.3504C3.69991 20.1746 3.8 19.9361 3.8 19.6875ZM35.15 20.625C35.402 20.625 35.6436 20.5262 35.8218 20.3504C35.9999 20.1746 36.1 19.9361 36.1 19.6875C36.1 19.4389 35.9999 19.2004 35.8218 19.0246C35.6436 18.8488 35.402 18.75 35.15 18.75C34.898 18.75 34.6564 18.8488 34.4782 19.0246C34.3001 19.2004 34.2 19.4389 34.2 19.6875C34.2 19.9361 34.3001 20.1746 34.4782 20.3504C34.6564 20.5262 34.898 20.625 35.15 20.625Z" fill="#0B2941"/>
</svg>
