<svg width="23" height="18" viewBox="0 0 23 18" fill="none" xmlns="http://www.w3.org/2000/svg">
<path fill-rule="evenodd" clip-rule="evenodd" d="M11.25 0C12.2119 0 13.1985 0.0247501 14.1548 0.0652501L15.2843 0.11925L16.3654 0.183375L17.3779 0.252L18.3026 0.324C19.3063 0.400378 20.2509 0.828488 20.97 1.53293C21.689 2.23737 22.1364 3.17294 22.2334 4.17487L22.2784 4.653L22.3628 5.67675C22.4415 6.73762 22.5 7.89412 22.5 9C22.5 10.1059 22.4415 11.2624 22.3628 12.3232L22.2784 13.347L22.2334 13.8251C22.1364 14.8272 21.6888 15.7629 20.9695 16.4674C20.2502 17.1719 19.3054 17.5999 18.3015 17.676L17.379 17.7469L16.3665 17.8166L15.2843 17.8807L14.1548 17.9347C13.1871 17.9767 12.2186 17.9984 11.25 18C10.2814 17.9984 9.31294 17.9767 8.34525 17.9347L7.21575 17.8807L6.13463 17.8166L5.12213 17.7469L4.19738 17.676C3.19367 17.5996 2.2491 17.1715 1.53005 16.4671C0.811 15.7626 0.36359 14.8271 0.266625 13.8251L0.221625 13.347L0.13725 12.3232C0.0515618 11.2175 0.0057821 10.109 0 9C0 7.89412 0.0585 6.73762 0.13725 5.67675L0.221625 4.653L0.266625 4.17487C0.363552 3.17312 0.810801 2.23768 1.52962 1.53327C2.24844 0.828853 3.19274 0.400631 4.19625 0.324L5.11988 0.252L6.13238 0.183375L7.21463 0.11925L8.34413 0.0652501C9.31219 0.0233181 10.281 0.00156328 11.25 0ZM9 6.27187V11.7281C9 12.2479 9.5625 12.5719 10.0125 12.3131L14.7375 9.585C14.8403 9.52581 14.9257 9.44058 14.9851 9.33787C15.0445 9.23517 15.0758 9.11863 15.0758 9C15.0758 8.88136 15.0445 8.76483 14.9851 8.66212C14.9257 8.55942 14.8403 8.47418 14.7375 8.415L10.0125 5.688C9.90986 5.62874 9.79342 5.59755 9.67489 5.59757C9.55637 5.59759 9.43994 5.62881 9.33731 5.68811C9.23469 5.7474 9.14948 5.83267 9.09027 5.93535C9.03106 6.03802 8.99992 6.15448 9 6.273V6.27187Z" fill="white"/>
</svg>
