<svg width="191" height="85" viewBox="0 0 191 85" fill="none" xmlns="http://www.w3.org/2000/svg">
<path d="M190.286 54.4886L187.915 60.1714H187.087L187.872 58.2912L186.35 54.4886H187.241L188.328 57.4352L189.458 54.4886H190.286Z" fill="white"/>
<path d="M184.912 55.0503C185.029 54.8538 185.183 54.7018 185.375 54.5942C185.572 54.482 185.803 54.4259 186.07 54.4259V55.2537H185.866C185.553 55.2537 185.314 55.3332 185.151 55.4923C184.992 55.6513 184.912 55.9273 184.912 56.3201V58.3547H184.112V54.489H184.912V55.0503Z" fill="white"/>
<path d="M181.315 58.4179C180.951 58.4179 180.621 58.336 180.326 58.1723C180.032 58.0039 179.8 57.7701 179.632 57.4707C179.463 57.1667 179.379 56.8159 179.379 56.4184C179.379 56.0255 179.466 55.677 179.639 55.373C179.812 55.069 180.048 54.8351 180.347 54.6714C180.647 54.5077 180.981 54.4259 181.35 54.4259C181.72 54.4259 182.054 54.5077 182.354 54.6714C182.653 54.8351 182.889 55.069 183.062 55.373C183.235 55.677 183.322 56.0255 183.322 56.4184C183.322 56.8112 183.233 57.1597 183.055 57.4637C182.878 57.7677 182.634 58.0039 182.326 58.1723C182.022 58.336 181.685 58.4179 181.315 58.4179ZM181.315 57.7233C181.521 57.7233 181.713 57.6742 181.891 57.576C182.073 57.4777 182.22 57.3304 182.333 57.134C182.445 56.9375 182.501 56.699 182.501 56.4184C182.501 56.1377 182.447 55.9015 182.34 55.7098C182.232 55.5133 182.09 55.366 181.912 55.2678C181.734 55.1695 181.542 55.1204 181.336 55.1204C181.131 55.1204 180.939 55.1695 180.761 55.2678C180.588 55.366 180.45 55.5133 180.347 55.7098C180.244 55.9015 180.193 56.1377 180.193 56.4184C180.193 56.8346 180.298 57.1574 180.509 57.3865C180.724 57.611 180.993 57.7233 181.315 57.7233Z" fill="white"/>
<path d="M177.296 58.4179C176.992 58.4179 176.718 58.3641 176.475 58.2565C176.237 58.1443 176.047 57.9946 175.907 57.8075C175.767 57.6157 175.692 57.4029 175.682 57.1691H176.51C176.524 57.3328 176.601 57.4707 176.742 57.583C176.887 57.6906 177.067 57.7443 177.282 57.7443C177.506 57.7443 177.679 57.7023 177.801 57.6181C177.927 57.5292 177.99 57.4169 177.99 57.2813C177.99 57.1363 177.92 57.0287 177.78 56.9586C177.644 56.8884 177.427 56.8112 177.128 56.7271C176.838 56.6475 176.601 56.5704 176.419 56.4955C176.237 56.4207 176.078 56.3061 175.942 56.1518C175.811 55.9974 175.745 55.794 175.745 55.5414C175.745 55.3356 175.806 55.1485 175.928 54.9801C176.049 54.8071 176.223 54.6714 176.447 54.5732C176.676 54.475 176.938 54.4259 177.233 54.4259C177.672 54.4259 178.026 54.5381 178.292 54.7626C178.563 54.9825 178.708 55.2841 178.727 55.6677H177.927C177.913 55.4946 177.843 55.3566 177.717 55.2537C177.591 55.1508 177.42 55.0994 177.205 55.0994C176.994 55.0994 176.833 55.1391 176.721 55.2187C176.608 55.2982 176.552 55.4034 176.552 55.5344C176.552 55.6373 176.59 55.7238 176.665 55.794C176.739 55.8641 176.831 55.9202 176.938 55.9623C177.046 55.9998 177.205 56.0489 177.415 56.1097C177.696 56.1845 177.925 56.2617 178.103 56.3412C178.285 56.416 178.442 56.5283 178.573 56.6779C178.704 56.8276 178.772 57.0264 178.776 57.2743C178.776 57.4941 178.715 57.6906 178.594 57.8636C178.472 58.0367 178.299 58.1723 178.075 58.2705C177.855 58.3688 177.595 58.4179 177.296 58.4179Z" fill="white"/>
<path d="M174.447 53.9758C174.302 53.9758 174.181 53.9267 174.083 53.8285C173.984 53.7303 173.935 53.6087 173.935 53.4637C173.935 53.3187 173.984 53.1971 174.083 53.0989C174.181 53.0006 174.302 52.9515 174.447 52.9515C174.588 52.9515 174.707 53.0006 174.805 53.0989C174.903 53.1971 174.953 53.3187 174.953 53.4637C174.953 53.6087 174.903 53.7303 174.805 53.8285C174.707 53.9267 174.588 53.9758 174.447 53.9758ZM174.84 54.488V58.3537H174.041V54.488H174.84Z" fill="white"/>
<path d="M171.493 57.6387L172.588 54.4886H173.437L171.963 58.3543H171.009L169.543 54.4886H170.399L171.493 57.6387Z" fill="white"/>
<path d="M164.978 56.4041C164.978 56.0158 165.058 55.6721 165.217 55.3727C165.38 55.0734 165.6 54.8419 165.876 54.6782C166.157 54.5098 166.468 54.4256 166.809 54.4256C167.062 54.4256 167.31 54.4817 167.553 54.594C167.801 54.7015 167.997 54.8465 168.142 55.029V53.1627H168.949V58.3544H168.142V57.7721C168.011 57.9592 167.829 58.1136 167.595 58.2352C167.366 58.3568 167.101 58.4176 166.802 58.4176C166.465 58.4176 166.157 58.3334 165.876 58.165C165.6 57.992 165.38 57.7534 165.217 57.4494C165.058 57.1407 164.978 56.7923 164.978 56.4041ZM168.142 56.4181C168.142 56.1515 168.086 55.92 167.974 55.7235C167.866 55.5271 167.724 55.3774 167.546 55.2745C167.368 55.1716 167.176 55.1202 166.97 55.1202C166.765 55.1202 166.573 55.1716 166.395 55.2745C166.217 55.3727 166.072 55.5201 165.96 55.7165C165.853 55.9083 165.799 56.1375 165.799 56.4041C165.799 56.6707 165.853 56.9045 165.96 57.1056C166.072 57.3068 166.217 57.4611 166.395 57.5687C166.578 57.6716 166.769 57.723 166.97 57.723C167.176 57.723 167.368 57.6716 167.546 57.5687C167.724 57.4658 167.866 57.3161 167.974 57.1197C168.086 56.9185 168.142 56.6847 168.142 56.4181Z" fill="white"/>
<path d="M163.292 57.3579H161.25L160.899 58.3541H160.064L161.811 53.4711H162.737L164.484 58.3541H163.642L163.292 57.3579ZM163.067 56.7054L162.274 54.4393L161.475 56.7054H163.067Z" fill="white"/>
<path d="M156.961 58.3542L156.357 57.7509C156.124 57.9847 155.869 58.1601 155.593 58.277C155.317 58.3893 155.008 58.4454 154.667 58.4454C154.32 58.4454 154.014 58.3846 153.748 58.263C153.481 58.1414 153.275 57.9684 153.13 57.7438C152.985 57.5147 152.913 57.2504 152.913 56.9511C152.913 56.6143 153.008 56.315 153.2 56.053C153.392 55.7864 153.677 55.576 154.056 55.4216C153.921 55.2579 153.825 55.1059 153.769 54.9656C153.712 54.8206 153.684 54.6616 153.684 54.4885C153.684 54.2734 153.738 54.0816 153.846 53.9132C153.958 53.7448 154.117 53.6115 154.323 53.5133C154.529 53.4151 154.767 53.366 155.038 53.366C155.314 53.366 155.548 53.4198 155.74 53.5273C155.936 53.6302 156.081 53.7729 156.175 53.9553C156.273 54.1377 156.313 54.3412 156.294 54.5657H155.494C155.499 54.3926 155.457 54.2593 155.368 54.1658C155.279 54.0676 155.158 54.0184 155.003 54.0184C154.849 54.0184 154.723 54.0652 154.624 54.1588C154.531 54.2476 154.484 54.3575 154.484 54.4885C154.484 54.6148 154.519 54.7411 154.589 54.8674C154.664 54.989 154.793 55.148 154.975 55.3444L156.266 56.6283L156.764 55.8075H157.627L156.996 56.8879L156.82 57.1756L158.006 58.3542H156.961ZM154.667 57.7649C155.106 57.7649 155.494 57.5848 155.831 57.2247L154.54 55.9268C153.988 56.1466 153.712 56.4787 153.712 56.923C153.712 57.1615 153.801 57.3627 153.979 57.5264C154.157 57.6854 154.386 57.7649 154.667 57.7649Z" fill="white"/>
<path d="M148.173 54.4259C148.472 54.4259 148.737 54.4867 148.966 54.6083C149.2 54.7252 149.382 54.8725 149.513 55.0503V54.489H150.32V58.4179C150.32 58.7733 150.245 59.089 150.095 59.365C149.946 59.6456 149.728 59.8655 149.443 60.0245C149.162 60.1835 148.825 60.263 148.433 60.263C147.909 60.263 147.474 60.1391 147.128 59.8912C146.782 59.648 146.585 59.3159 146.538 58.8949H147.331C147.392 59.0961 147.521 59.2574 147.717 59.379C147.918 59.5053 148.157 59.5685 148.433 59.5685C148.755 59.5685 149.015 59.4702 149.211 59.2738C149.412 59.0774 149.513 58.792 149.513 58.4179V57.7724C149.377 57.9548 149.193 58.1092 148.959 58.2355C148.73 58.3571 148.468 58.4179 148.173 58.4179C147.836 58.4179 147.528 58.3337 147.247 58.1653C146.971 57.9922 146.751 57.7537 146.587 57.4497C146.428 57.141 146.349 56.7925 146.349 56.4043C146.349 56.0161 146.428 55.6723 146.587 55.373C146.751 55.0737 146.971 54.8421 147.247 54.6784C147.528 54.5101 147.836 54.4259 148.173 54.4259ZM149.513 56.4184C149.513 56.1518 149.457 55.9202 149.345 55.7238C149.237 55.5274 149.094 55.3777 148.917 55.2748C148.739 55.1719 148.547 55.1204 148.341 55.1204C148.136 55.1204 147.944 55.1719 147.766 55.2748C147.588 55.373 147.443 55.5203 147.331 55.7168C147.224 55.9085 147.17 56.1377 147.17 56.4043C147.17 56.6709 147.224 56.9048 147.331 57.1059C147.443 57.307 147.588 57.4614 147.766 57.569C147.949 57.6719 148.14 57.7233 148.341 57.7233C148.547 57.7233 148.739 57.6719 148.917 57.569C149.094 57.4661 149.237 57.3164 149.345 57.1199C149.457 56.9188 149.513 56.685 149.513 56.4184Z" fill="white"/>
<path d="M144.01 54.4259C144.314 54.4259 144.585 54.489 144.824 54.6153C145.067 54.7416 145.256 54.9287 145.392 55.1766C145.527 55.4245 145.595 55.7238 145.595 56.0746V58.3547H144.803V56.1939C144.803 55.8477 144.716 55.5835 144.543 55.4011C144.37 55.214 144.134 55.1204 143.834 55.1204C143.535 55.1204 143.296 55.214 143.119 55.4011C142.946 55.5835 142.859 55.8477 142.859 56.1939V58.3547H142.059V54.489H142.859V54.931C142.99 54.772 143.156 54.648 143.357 54.5592C143.563 54.4703 143.781 54.4259 144.01 54.4259Z" fill="white"/>
<path d="M140.617 53.9758C140.472 53.9758 140.35 53.9267 140.252 53.8285C140.153 53.7303 140.104 53.6087 140.104 53.4637C140.104 53.3187 140.153 53.1971 140.252 53.0989C140.35 53.0006 140.472 52.9515 140.617 52.9515C140.757 52.9515 140.876 53.0006 140.974 53.0989C141.073 53.1971 141.122 53.3187 141.122 53.4637C141.122 53.6087 141.073 53.7303 140.974 53.8285C140.876 53.9267 140.757 53.9758 140.617 53.9758ZM141.009 54.488V58.3537H140.21V54.488H141.009Z" fill="white"/>
<path d="M138.317 55.0503C138.434 54.8538 138.588 54.7018 138.78 54.5942C138.976 54.482 139.208 54.4259 139.474 54.4259V55.2537H139.271C138.957 55.2537 138.719 55.3332 138.555 55.4923C138.396 55.6513 138.317 55.9273 138.317 56.3201V58.3547H137.517V54.489H138.317V55.0503Z" fill="white"/>
<path d="M136.73 56.3272C136.73 56.4721 136.721 56.6031 136.702 56.72H133.749C133.772 57.0287 133.886 57.2766 134.092 57.4637C134.298 57.6508 134.551 57.7443 134.85 57.7443C135.28 57.7443 135.584 57.5643 135.762 57.2041H136.625C136.508 57.5596 136.295 57.8519 135.987 58.0811C135.683 58.3056 135.304 58.4179 134.85 58.4179C134.481 58.4179 134.148 58.336 133.854 58.1723C133.564 58.0039 133.335 57.7701 133.166 57.4707C133.003 57.1667 132.921 56.8159 132.921 56.4184C132.921 56.0208 133 55.6723 133.159 55.373C133.323 55.069 133.55 54.8351 133.84 54.6714C134.134 54.5077 134.471 54.4259 134.85 54.4259C135.215 54.4259 135.54 54.5054 135.825 54.6644C136.111 54.8234 136.333 55.0479 136.492 55.3379C136.651 55.6232 136.73 55.953 136.73 56.3272ZM135.895 56.0746C135.891 55.7799 135.785 55.5437 135.58 55.366C135.374 55.1883 135.119 55.0994 134.815 55.0994C134.539 55.0994 134.303 55.1883 134.106 55.366C133.91 55.539 133.793 55.7752 133.756 56.0746H135.895Z" fill="white"/>
<path d="M130.832 56.4251L132.614 58.3544H131.534L130.102 56.6917V58.3544H129.303V53.1627H130.102V56.1795L131.505 54.4887H132.614L130.832 56.4251Z" fill="white"/>
<path d="M126.505 58.4179C126.141 58.4179 125.811 58.336 125.516 58.1723C125.222 58.0039 124.99 57.7701 124.822 57.4707C124.653 57.1667 124.569 56.8159 124.569 56.4184C124.569 56.0255 124.656 55.677 124.829 55.373C125.002 55.069 125.238 54.8351 125.537 54.6714C125.837 54.5077 126.171 54.4259 126.541 54.4259C126.91 54.4259 127.244 54.5077 127.544 54.6714C127.843 54.8351 128.079 55.069 128.252 55.373C128.425 55.677 128.512 56.0255 128.512 56.4184C128.512 56.8112 128.423 57.1597 128.245 57.4637C128.068 57.7677 127.824 58.0039 127.516 58.1723C127.212 58.336 126.875 58.4179 126.505 58.4179ZM126.505 57.7233C126.711 57.7233 126.903 57.6742 127.081 57.576C127.263 57.4777 127.411 57.3304 127.523 57.134C127.635 56.9375 127.691 56.699 127.691 56.4184C127.691 56.1377 127.637 55.9015 127.53 55.7098C127.422 55.5133 127.28 55.366 127.102 55.2678C126.924 55.1695 126.732 55.1204 126.527 55.1204C126.321 55.1204 126.129 55.1695 125.951 55.2678C125.778 55.366 125.64 55.5133 125.537 55.7098C125.434 55.9015 125.383 56.1377 125.383 56.4184C125.383 56.8346 125.488 57.1574 125.699 57.3865C125.914 57.611 126.183 57.7233 126.505 57.7233Z" fill="white"/>
<path d="M122.935 55.0503C123.052 54.8538 123.206 54.7018 123.398 54.5942C123.595 54.482 123.826 54.4259 124.093 54.4259V55.2537H123.889C123.576 55.2537 123.337 55.3332 123.174 55.4923C123.015 55.6513 122.935 55.9273 122.935 56.3201V58.3547H122.135V54.489H122.935V55.0503Z" fill="white"/>
<path d="M118.18 55.064C118.316 54.8769 118.5 54.7249 118.734 54.608C118.973 54.4864 119.237 54.4256 119.527 54.4256C119.868 54.4256 120.177 54.5074 120.453 54.6711C120.729 54.8348 120.946 55.0687 121.105 55.3727C121.265 55.6721 121.344 56.0158 121.344 56.4041C121.344 56.7923 121.265 57.1407 121.105 57.4494C120.946 57.7534 120.727 57.992 120.446 58.165C120.17 58.3334 119.864 58.4176 119.527 58.4176C119.228 58.4176 118.961 58.3591 118.727 58.2422C118.498 58.1253 118.316 57.9756 118.18 57.7932V58.3544H117.38V53.1627H118.18V55.064ZM120.53 56.4041C120.53 56.1375 120.474 55.9083 120.362 55.7165C120.254 55.5201 120.109 55.3727 119.927 55.2745C119.749 55.1716 119.557 55.1202 119.352 55.1202C119.15 55.1202 118.959 55.1716 118.776 55.2745C118.599 55.3774 118.454 55.5271 118.341 55.7235C118.234 55.92 118.18 56.1515 118.18 56.4181C118.18 56.6847 118.234 56.9185 118.341 57.1197C118.454 57.3161 118.599 57.4658 118.776 57.5687C118.959 57.6716 119.15 57.723 119.352 57.723C119.557 57.723 119.749 57.6716 119.927 57.5687C120.109 57.4611 120.254 57.3068 120.362 57.1056C120.474 56.9045 120.53 56.6707 120.53 56.4041Z" fill="white"/>
<path d="M113.425 55.0573C113.561 54.8796 113.746 54.7299 113.98 54.6083C114.213 54.4867 114.478 54.4259 114.772 54.4259C115.109 54.4259 115.415 54.5101 115.691 54.6784C115.972 54.8421 116.192 55.0737 116.351 55.373C116.51 55.6723 116.589 56.0161 116.589 56.4043C116.589 56.7925 116.51 57.141 116.351 57.4497C116.192 57.7537 115.972 57.9922 115.691 58.1653C115.415 58.3337 115.109 58.4179 114.772 58.4179C114.478 58.4179 114.216 58.3594 113.987 58.2425C113.757 58.1209 113.57 57.9712 113.425 57.7935V60.1929H112.625V54.489H113.425V55.0573ZM115.776 56.4043C115.776 56.1377 115.719 55.9085 115.607 55.7168C115.5 55.5203 115.355 55.373 115.172 55.2748C114.994 55.1719 114.803 55.1204 114.597 55.1204C114.396 55.1204 114.204 55.1719 114.022 55.2748C113.844 55.3777 113.699 55.5274 113.587 55.7238C113.479 55.9202 113.425 56.1518 113.425 56.4184C113.425 56.685 113.479 56.9188 113.587 57.1199C113.699 57.3164 113.844 57.4661 114.022 57.569C114.204 57.6719 114.396 57.7233 114.597 57.7233C114.803 57.7233 114.994 57.6719 115.172 57.569C115.355 57.4614 115.5 57.307 115.607 57.1059C115.719 56.9048 115.776 56.6709 115.776 56.4043Z" fill="white"/>
<path d="M111.181 53.9758C111.036 53.9758 110.915 53.9267 110.817 53.8285C110.718 53.7303 110.669 53.6087 110.669 53.4637C110.669 53.3187 110.718 53.1971 110.817 53.0989C110.915 53.0006 111.036 52.9515 111.181 52.9515C111.322 52.9515 111.441 53.0006 111.539 53.0989C111.637 53.1971 111.687 53.3187 111.687 53.4637C111.687 53.6087 111.637 53.7303 111.539 53.8285C111.441 53.9267 111.322 53.9758 111.181 53.9758ZM111.574 54.488V58.3537H110.775V54.488H111.574Z" fill="white"/>
<path d="M108.218 54.4256C108.513 54.4256 108.775 54.4887 109.004 54.615C109.238 54.7413 109.42 54.9284 109.551 55.1763C109.687 55.4242 109.755 55.7235 109.755 56.0743V58.3544H108.962V56.1936C108.962 55.8475 108.876 55.5832 108.703 55.4008C108.53 55.2137 108.293 55.1202 107.994 55.1202C107.695 55.1202 107.456 55.2137 107.278 55.4008C107.105 55.5832 107.019 55.8475 107.019 56.1936V58.3544H106.219V53.1627H107.019V54.9377C107.154 54.774 107.325 54.6478 107.531 54.5589C107.741 54.47 107.971 54.4256 108.218 54.4256Z" fill="white"/>
<path d="M103.593 58.4031C103.265 58.4031 102.971 58.347 102.709 58.2347C102.447 58.1178 102.241 57.9541 102.091 57.7436C101.942 57.5332 101.867 57.2876 101.867 57.007H102.723C102.741 57.2175 102.823 57.3905 102.968 57.5262C103.118 57.6618 103.326 57.7296 103.593 57.7296C103.869 57.7296 104.084 57.6641 104.238 57.5332C104.393 57.3975 104.47 57.2245 104.47 57.014C104.47 56.8503 104.421 56.717 104.322 56.6141C104.229 56.5112 104.11 56.4317 103.965 56.3756C103.824 56.3194 103.628 56.2586 103.375 56.1931C103.057 56.109 102.798 56.0248 102.596 55.9406C102.4 55.8517 102.232 55.7161 102.091 55.5337C101.951 55.3512 101.881 55.108 101.881 54.804C101.881 54.5234 101.951 54.2778 102.091 54.0674C102.232 53.8569 102.428 53.6955 102.681 53.5833C102.933 53.471 103.226 53.4149 103.558 53.4149C104.03 53.4149 104.416 53.5342 104.715 53.7727C105.019 54.0065 105.188 54.3293 105.22 54.7409H104.336C104.322 54.5631 104.238 54.4111 104.084 54.2848C103.929 54.1586 103.726 54.0954 103.473 54.0954C103.244 54.0954 103.057 54.1539 102.912 54.2708C102.767 54.3877 102.695 54.5561 102.695 54.776C102.695 54.9256 102.739 55.0496 102.828 55.1478C102.922 55.2413 103.038 55.3162 103.179 55.3723C103.319 55.4284 103.511 55.4892 103.754 55.5547C104.077 55.6436 104.339 55.7324 104.54 55.8213C104.746 55.9102 104.919 56.0482 105.059 56.2352C105.204 56.4177 105.277 56.6632 105.277 56.9719C105.277 57.2198 105.209 57.4537 105.073 57.6735C104.942 57.8933 104.748 58.071 104.491 58.2067C104.238 58.3376 103.939 58.4031 103.593 58.4031Z" fill="white"/>
<path d="M177.743 45.624C175.908 45.624 174.133 45.4585 172.418 45.1275C170.702 44.7966 169.168 44.3151 167.814 43.6833V34.8373C168.295 34.7471 168.777 34.7471 169.258 34.8373C169.499 36.6426 170.025 38.2223 170.838 39.5762C171.68 40.9001 172.733 41.9382 173.997 42.6904C175.291 43.4426 176.705 43.8187 178.24 43.8187C180.406 43.8187 182.061 43.3373 183.204 42.3744C184.348 41.3815 184.919 40.1329 184.919 38.6285C184.919 37.455 184.618 36.4922 184.017 35.74C183.415 34.9878 182.617 34.3559 181.625 33.8444C180.662 33.3028 179.594 32.8064 178.42 32.355C177.247 31.9037 176.058 31.4073 174.855 30.8657C173.681 30.3241 172.598 29.6621 171.605 28.8798C170.642 28.0975 169.86 27.1197 169.258 25.9462C168.656 24.7427 168.356 23.2684 168.356 21.5232C168.356 19.6277 168.822 18.033 169.755 16.7392C170.718 15.4153 172.041 14.4224 173.726 13.7605C175.441 13.0985 177.412 12.7675 179.639 12.7675C181.474 12.7675 183.084 12.933 184.468 13.264C185.882 13.595 187.146 14.0613 188.259 14.6631V22.8772C187.778 22.9675 187.296 22.9675 186.815 22.8772C186.484 20.2896 185.701 18.2587 184.468 16.7843C183.264 15.31 181.564 14.5728 179.368 14.5728C177.563 14.5728 176.133 14.964 175.08 15.7463C174.057 16.4985 173.546 17.6719 173.546 19.2666C173.546 20.2595 173.847 21.087 174.448 21.7489C175.08 22.4109 175.893 22.9825 176.886 23.4639C177.909 23.9454 179.022 24.4117 180.225 24.8631C181.459 25.2843 182.678 25.7657 183.881 26.3073C185.085 26.8489 186.183 27.5259 187.176 28.3383C188.199 29.1205 189.011 30.0984 189.613 31.2719C190.245 32.4453 190.561 33.9046 190.561 35.6497C190.561 37.6355 190.034 39.3807 188.981 40.8851C187.958 42.3594 186.484 43.5178 184.558 44.3603C182.663 45.2028 180.391 45.624 177.743 45.624Z" fill="#B08D4B"/>
<path d="M166.082 13.3094C166.202 13.8509 166.202 14.4076 166.082 14.9793H163.509C162.847 16.3332 162.275 17.6421 161.794 18.9058C161.313 20.1695 160.846 21.4934 160.395 22.8774L155.746 36.8234C155.355 37.9968 154.904 39.426 154.392 41.111C153.911 42.7658 153.565 44.3605 153.354 45.895C153.053 45.9251 152.632 45.9401 152.091 45.9401C151.579 45.9702 151.052 45.9702 150.511 45.9401C149.999 45.9401 149.593 45.9251 149.292 45.895L153.625 36.8234L158.274 22.8774C158.755 21.4633 159.116 20.1394 159.357 18.9058C159.628 17.6421 159.793 16.3332 159.853 14.9793H155.746C155.716 14.7987 155.701 14.5279 155.701 14.1669C155.701 13.7757 155.716 13.4899 155.746 13.3094C156.98 13.3394 158.153 13.3695 159.267 13.3996C160.41 13.3996 161.237 13.3996 161.749 13.3996C162.29 13.3996 162.877 13.3996 163.509 13.3996C164.171 13.3695 165.028 13.3394 166.082 13.3094ZM137.603 14.9793H135.707C135.587 14.4076 135.587 13.8509 135.707 13.3094C136.43 13.3394 137.046 13.3695 137.558 13.3996C138.099 13.3996 138.701 13.3996 139.363 13.3996C140.025 13.3996 140.883 13.3996 141.936 13.3996C143.44 13.3996 144.734 13.3996 145.817 13.3996C146.93 13.3695 147.999 13.3394 149.022 13.3094C149.142 13.8509 149.142 14.4076 149.022 14.9793H146.043C146.283 16.3332 146.614 17.6421 147.036 18.9058C147.457 20.1394 147.923 21.4633 148.435 22.8774L153.625 36.8234L149.292 45.895C149.112 44.872 148.841 43.8339 148.48 42.7809C148.149 41.6977 147.773 40.5844 147.352 39.4411C146.93 38.2977 146.494 37.1393 146.043 35.9659L141.078 22.8774C140.507 21.2828 139.965 19.8836 139.453 18.6801C138.972 17.4766 138.355 16.243 137.603 14.9793Z" fill="#B08D4B"/>
<path d="M126.732 44.9924C126.431 44.3304 126.146 43.7587 125.875 43.2773C125.604 42.7658 125.288 42.2543 124.927 41.7428C124.596 41.2012 124.145 40.5543 123.573 39.8021L107.867 18.635L106.558 13.3996C107.22 13.3996 108.002 13.3996 108.905 13.3996C109.808 13.3996 110.665 13.3996 111.477 13.3996C112.32 13.3695 112.982 13.3394 113.463 13.3094C113.854 14.0616 114.261 14.8288 114.682 15.6111C115.133 16.3633 115.735 17.266 116.487 18.3191L128.673 34.6119L130.794 44.9924C130.253 45.0525 129.576 45.0826 128.763 45.0826C127.951 45.0826 127.274 45.0525 126.732 44.9924ZM101.819 45.0826C101.699 44.5109 101.699 43.9543 101.819 43.4127H104.843C105.084 42.0587 105.249 40.7499 105.339 39.4862C105.46 38.1924 105.52 36.8685 105.52 35.5145V22.8774C105.52 21.5235 105.46 20.2598 105.339 19.0863C105.249 17.9129 105.084 16.5438 104.843 14.9793H101.819C101.699 14.4076 101.699 13.8509 101.819 13.3094C102.872 13.3394 103.79 13.3695 104.572 13.3996C105.355 13.3996 106.016 13.3996 106.558 13.3996L107.867 18.635C107.837 19.2969 107.792 19.9739 107.731 20.6659C107.671 21.358 107.641 22.0951 107.641 22.8774V35.5145C107.641 36.8685 107.686 38.1924 107.777 39.4862C107.897 40.7499 108.078 42.0587 108.318 43.4127H112.245C112.365 43.9543 112.365 44.5109 112.245 45.0826C110.981 45.0224 109.853 44.9924 108.86 44.9924C107.897 44.9924 107.13 44.9924 106.558 44.9924C106.016 44.9924 105.355 44.9924 104.572 44.9924C103.79 44.9924 102.872 45.0224 101.819 45.0826ZM130.794 44.9924L128.673 34.6119V22.8774C128.673 21.5235 128.613 20.2598 128.492 19.0863C128.402 17.9129 128.237 16.5438 127.996 14.9793H124.069C123.949 14.4076 123.949 13.8509 124.069 13.3094C125.333 13.3394 126.461 13.3695 127.454 13.3996C128.447 13.3996 129.23 13.3996 129.801 13.3996C130.313 13.3996 130.96 13.3996 131.742 13.3996C132.554 13.3695 133.472 13.3394 134.495 13.3094C134.615 13.8509 134.615 14.4076 134.495 14.9793H131.471C131.23 16.5438 131.05 17.9129 130.93 19.0863C130.839 20.2598 130.794 21.5235 130.794 22.8774V44.9924Z" fill="#B08D4B"/>
<path d="M52.6472 30.0435C53.2261 45.354 48.2502 58.6878 36.06 65.6774C33.0486 59.0213 27.5277 54.2092 23.4571 48.3253C22.0438 46.6698 21.3017 44.554 20.7074 42.358C20.4211 41.2955 20.7413 40.7858 21.5788 40.2391C38.6495 31.0102 49.1185 30.3925 52.6472 30.0435Z" fill="white"/>
<path d="M54.2266 29.9725C59.0177 30.2968 70.6691 31.9368 85.3874 40.1589C86.4835 40.7704 86.5882 41.4839 86.3234 42.67C85.7569 45.2181 84.1896 47.6458 82.3698 49.8511C78.2807 54.7992 76.6704 57.0786 73.4465 61.1433C73.4157 61.1834 73.4003 61.2606 73.3664 61.2699C71.0879 61.9649 68.8186 62.6845 66.5185 63.2899C66.2752 63.3548 65.8318 62.7463 65.5116 62.4158C58.8022 55.525 55.4798 47.13 54.6484 37.6478C54.4421 35.3035 54.3867 32.9438 54.2297 29.9694L54.2266 29.9725Z" fill="white"/>
<path d="M107.973 70.2424C104.367 69.3282 100.7 68.1977 96.9556 67.4873C88.5834 65.9028 80.6269 67.7807 72.9876 71.1041C68.5291 73.0438 64.209 75.3171 59.8952 77.5749C52.9302 81.2164 45.7681 84.1816 37.8024 84.6356C29.7813 85.0896 22.065 83.8758 14.789 80.3238C14.6597 80.259 14.5581 80.1323 14.3426 79.9501C16.0884 80.2373 17.6988 80.5586 19.3246 80.7655C29.1532 82.0133 38.2551 79.493 46.9659 75.2121C52.7639 72.3612 58.3125 68.939 64.2614 66.4773C79.1767 60.3 93.6948 61.3069 107.492 70.02C107.665 70.1281 107.828 70.2579 107.988 70.3845C108.013 70.4061 108.003 70.471 107.97 70.2486L107.973 70.2424ZM31.6196 70.193C21.1567 74.6345 10.5614 74.514 0 70.2393C2.78969 72.5435 5.80415 74.3472 9.19427 75.4839C16.578 77.9579 24.0819 78.415 31.7889 77.3062C40.6322 76.0337 47.1784 71.2617 52.5484 64.4635C52.7147 64.2535 52.7424 63.8859 52.7424 63.5925C52.7547 57.9866 52.7516 52.3837 52.7516 46.7778C49.5216 58.0885 42.2056 65.7021 31.6196 70.1961V70.193ZM64.1505 83.2611C69.0895 82.7948 73.6712 80.8983 78.1205 78.7455C83.2596 76.256 88.488 73.921 94.2613 73.572C98.4643 73.3187 102.692 73.5226 106.602 73.5226C105.725 73.2137 104.496 72.7319 103.237 72.3489C92.5832 69.0934 81.9972 68.9112 71.7406 73.6924C65.4438 76.6267 59.3563 80.0088 52.8994 83.3291C56.8099 83.3291 60.511 83.604 64.1505 83.2611ZM27.7491 65.8997C22.5515 62.9748 17.5264 63.2373 12.4859 66.3414C9.97021 67.8919 7.15589 68.7073 4.16914 68.7691C2.99291 68.7938 1.81361 68.7722 0.637379 68.7722C5.28994 70.6841 10.001 71.7373 15.0138 70.7644C17.5018 70.2826 20.1498 69.4548 22.53 69.8841C26.1295 70.5327 29.0392 69.4177 32.2354 67.8827C30.625 67.1815 29.1162 66.6688 27.746 65.8997H27.7491ZM54.2912 60.8065C54.1618 63.5709 54.8393 65.9152 56.4219 68.1205C59.0731 66.7584 61.7488 65.3839 64.5508 63.9446C59.6581 59.2004 56.2218 53.6408 54.3497 47.0836C54.3497 51.6579 54.5067 56.2415 54.2912 60.8065Z" fill="#B08D4B"/>
<path d="M27.5645 20.1721C33.2209 20.1721 38.6986 20.1721 44.1764 20.1721C44.3304 20.1721 44.4966 20.2153 44.6352 20.1721C45.1894 20.0053 45.7375 19.8107 46.2887 19.6285C45.7468 19.4277 45.2048 19.054 44.6598 19.0478C39.4284 19.0015 34.197 19.0169 28.9686 19.0077C28.6207 19.0077 28.2696 18.9521 27.9248 18.9243C28.0387 16.5337 28.245 16.2279 30.3573 15.5793C35.8597 13.8898 41.5345 13.5438 47.234 13.4357C48.9213 13.4048 50.6087 13.4295 52.5301 13.4295C52.5301 14.8009 52.4531 16.1167 52.5732 17.417C52.6132 17.8463 53.1521 18.2324 53.46 18.637C53.7617 18.217 54.2759 17.8155 54.3191 17.3707C54.4391 16.1537 54.3591 14.9183 54.3591 13.7631C54.55 13.6334 54.63 13.5284 54.7163 13.5284C61.9584 13.3863 69.182 13.5222 76.2424 15.4094C78.6657 16.058 78.9428 16.4564 79.2353 19.02C76.8244 19.02 74.4288 19.0262 72.0333 19.02C68.2891 19.0108 64.5448 18.9675 60.8037 19.0046C60.3357 19.0108 59.8707 19.4246 59.4027 19.6532C59.8553 19.8385 60.308 20.1875 60.7606 20.1875C66.3492 20.2184 71.9409 20.1968 77.5295 20.1875C78.1392 20.1875 78.7488 20.1875 79.4755 20.1875V27.6189C62.2293 22.3218 44.9462 22.1674 27.6292 27.5602C27.6045 27.1247 27.5645 26.7695 27.5645 26.4143C27.5584 24.4128 27.5645 22.4114 27.5645 20.1752V20.1721ZM86.9609 39.3435C86.9609 37.5304 87.0379 35.7452 86.9178 33.9754C86.8777 33.3916 86.4621 32.5793 85.9817 32.3291C83.9834 31.2913 81.9573 30.2442 79.8327 29.5339C66.0598 24.9472 52.0005 24.1966 37.7626 26.7726C32.1032 27.7949 26.5238 29.191 21.4863 32.1623C21.0337 32.4279 20.3594 32.848 20.3378 33.231C20.2208 35.217 20.2824 37.2154 20.2824 39.1983C42.68 24.9163 64.7234 24.7588 86.9609 39.3435ZM39.6593 6.6283V12.1817H67.4762V6.6283H39.6593ZM46.5104 2.09808e-05V4.90482H60.4773V2.09808e-05H46.5104Z" fill="#B08D4B"/>
</svg>
