<svg width="129" height="101" viewBox="0 0 129 101" fill="none" xmlns="http://www.w3.org/2000/svg">
<path d="M62.4643 35.5554C63.1511 53.6749 57.2475 69.4549 42.7842 77.7269C39.2113 69.8497 32.661 64.1547 27.8314 57.1913C26.1545 55.2321 25.2741 52.7281 24.569 50.1292C24.2292 48.8718 24.6092 48.2687 25.6029 47.6217C45.8566 36.6995 58.2777 35.9685 62.4643 35.5554Z" fill="white"/>
<path d="M64.3378 35.4714C70.0223 35.8552 83.8463 37.7962 101.309 47.5267C102.609 48.2505 102.734 49.0948 102.419 50.4985C101.747 53.5141 99.8878 56.3872 97.7287 58.9971C92.8771 64.853 90.9665 67.5506 87.1415 72.361C87.105 72.4085 87.0867 72.4999 87.0465 72.5109C84.3431 73.3333 81.6507 74.185 78.9217 74.9015C78.6331 74.9782 78.107 74.2581 77.727 73.867C69.7666 65.712 65.8247 55.7768 64.8383 44.5549C64.5936 41.7805 64.5278 38.9879 64.3415 35.4678L64.3378 35.4714Z" fill="white"/>
<path d="M128.105 83.1293C123.827 82.0473 119.476 80.7094 115.034 79.8687C105.101 77.9935 95.6608 80.216 86.597 84.1491C81.3071 86.4446 76.1815 89.135 71.0633 91.807C62.7996 96.1166 54.3021 99.6258 44.8511 100.163C35.3344 100.7 26.1793 99.2639 17.5466 95.0602C17.3932 94.9835 17.2726 94.8336 17.0169 94.618C19.0883 94.9579 20.999 95.3381 22.9279 95.583C34.5891 97.0597 45.3882 94.077 55.7233 89.0107C62.6024 85.6368 69.1855 81.5867 76.2437 78.6734C93.9401 71.3628 111.165 72.5544 127.535 82.8661C127.74 82.994 127.934 83.1475 128.124 83.2974C128.153 83.323 128.142 83.3998 128.102 83.1366L128.105 83.1293ZM37.5154 83.0708C25.1016 88.3271 12.5307 88.1846 0 83.1256C3.30986 85.8525 6.88641 87.9872 10.9087 89.3324C19.6692 92.2603 28.5722 92.8013 37.7163 91.489C48.2085 89.983 55.9753 84.3355 62.3466 76.2901C62.5439 76.0416 62.5768 75.6066 62.5768 75.2593C62.5914 68.6249 62.5877 61.9942 62.5877 55.3597C58.7555 68.7455 50.0753 77.7559 37.5154 83.0744V83.0708ZM76.1121 98.5365C81.972 97.9845 87.408 95.7401 92.687 93.1924C98.7843 90.2462 104.988 87.4828 111.837 87.0697C116.824 86.77 121.84 87.0112 126.48 87.0112C125.439 86.6457 123.981 86.0755 122.487 85.6222C109.846 81.7695 97.2865 81.5538 85.1174 87.2123C77.6465 90.6848 70.424 94.6874 62.7631 98.6169C67.4027 98.6169 71.794 98.9422 76.1121 98.5365ZM32.9232 77.9899C26.7565 74.5283 20.7944 74.839 14.814 78.5126C11.8293 80.3476 8.49019 81.3126 4.94652 81.3857C3.55097 81.4149 2.15177 81.3893 0.756226 81.3893C6.27631 83.652 11.8658 84.8984 17.8133 83.747C20.7652 83.1768 23.907 82.1972 26.7309 82.7052C31.0016 83.4729 34.4539 82.1533 38.246 80.3366C36.3354 79.5068 34.5453 78.9 32.9196 77.9899H32.9232ZM64.4144 71.9622C64.2609 75.2338 65.0647 78.0082 66.9424 80.6181C70.0879 79.0061 73.2626 77.3794 76.5871 75.6761C70.782 70.0615 66.705 63.4819 64.4838 55.7216C64.4838 61.1352 64.6701 66.5597 64.4144 71.9622Z" fill="#B08D4B"/>
<path d="M32.7042 23.8729C39.4153 23.8729 45.9144 23.8729 52.4136 23.8729C52.5963 23.8729 52.7935 23.9241 52.9579 23.8729C53.6155 23.6756 54.2658 23.4453 54.9197 23.2296C54.2768 22.992 53.6338 22.5497 52.9872 22.5424C46.7803 22.4876 40.5734 22.5059 34.3701 22.4949C33.9573 22.4949 33.5408 22.4291 33.1317 22.3962C33.2668 19.567 33.5116 19.2051 36.0177 18.4375C42.5461 16.438 49.2791 16.0286 56.0413 15.9007C58.0433 15.8641 60.0453 15.8934 62.3249 15.8934C62.3249 17.5163 62.2336 19.0735 62.3761 20.6124C62.4235 21.1205 63.0629 21.5774 63.4282 22.0562C63.7862 21.5591 64.3963 21.0839 64.4475 20.5576C64.5899 19.1174 64.4949 17.6552 64.4949 16.2881C64.7214 16.1346 64.8164 16.0103 64.9187 16.0103C73.5112 15.8422 82.0818 16.003 90.4587 18.2364C93.3338 19.004 93.6626 19.4756 94.0097 22.5095C91.1492 22.5095 88.3069 22.5168 85.4647 22.5095C81.0223 22.4985 76.5799 22.4474 72.1412 22.4912C71.5859 22.4985 71.0343 22.9884 70.479 23.2589C71.016 23.4782 71.5531 23.8912 72.0901 23.8912C78.7208 23.9278 85.3551 23.9022 91.9858 23.8912C92.7091 23.8912 93.4325 23.8912 94.2946 23.8912V32.6859C73.8327 26.4171 53.3269 26.2343 32.781 32.6165C32.7517 32.1011 32.7042 31.6807 32.7042 31.2604C32.6969 28.8917 32.7042 26.5231 32.7042 23.8766V23.8729ZM103.176 46.5616C103.176 44.4159 103.267 42.3031 103.125 40.2086C103.077 39.5177 102.584 38.5564 102.014 38.2603C99.643 37.0321 97.2392 35.793 94.7184 34.9522C78.3773 29.5241 61.6965 28.6358 44.8038 31.6844C38.0891 32.8943 31.4694 34.5465 25.4927 38.0629C24.9557 38.3773 24.1556 38.8744 24.13 39.3277C23.9912 41.678 24.0643 44.043 24.0643 46.3898C50.6381 29.4875 76.7918 29.3011 103.176 46.5616ZM47.0543 7.84433V14.4166H80.0579V7.84433H47.0543ZM55.1828 0V5.80466H71.754V0H55.1828Z" fill="#B08D4B"/>
</svg>
